<?xml version="1.0" encoding="utf-8"?>
<!-- Generator: Adobe Illustrator 25.1.0, SVG Export Plug-In . SVG Version: 6.00 Build 0)  -->
<svg version="1.1" id="Camada_1" xmlns="http://www.w3.org/2000/svg" xmlns:xlink="http://www.w3.org/1999/xlink" x="0px" y="0px"
	 viewBox="0 0 791.1 193.3" style="enable-background:new 0 0 791.1 193.3;" xml:space="preserve">
<style type="text/css">
	.st0{fill:#FFFFFF;}
</style>
<g id="Layer_2">
	<g id="Layer_1-2">
		<path class="st0" d="M0,20v156.5c0,8.4,6.9,15.3,15.3,15.3c0,0,0,0,0,0h157.3c10.6,0,19.2-8.6,19.2-19.2V21.4
			c0-11.8-9.6-21.4-21.4-21.4H20C9,0,0,9,0,20z M99.7,147.4H89.5l1.1-49.8l-7.6,36h-7.8l-7.6-36l1.1,49.8H38.9V120h8.3v18.6h11.2
			V84.9l12-9.9l8.7,41l9.4-44.7h11.3V147.4z M94.2,59.2v5.8h-5.8v-5.8H94.2z M88.4,57v-5.8h5.8V57H88.4z M103.4,59.2V65h-5.8v-5.8
			L103.4,59.2z M97.6,57v-5.8h5.8V57H97.6z M149.5,138.6v8.8h-33.5v-28l-12.5-48.1h10.1l7.6,33.1h0.3l5.4-26.1l7.6,8.3l-8.4,32.9
			v19.2h15.1v-20h8.3V138.6z M158.5,93.4l-2.1,1.9c-0.9,0.8-2.3,0.8-3.1-0.1L101.3,39c-0.8-0.9-2.1-0.9-3-0.2L38,88.5
			c-0.9,0.8-2.3,0.6-3.1-0.3c0,0,0,0,0,0L33.1,86c-0.8-0.9-0.6-2.3,0.3-3.1c0,0,0,0,0,0L98.8,29l0.1-0.1c0.9-0.8,2.3-0.8,3.1,0.1
			c0,0,0,0,0,0l56.6,61.2C159.4,91.2,159.4,92.6,158.5,93.4C158.5,93.4,158.5,93.4,158.5,93.4L158.5,93.4z"/>
		<path class="st0" d="M245.8,112.5l16.1-76.6h19.2v130.3h-17.4l1.8-85.3l-13.1,61.7h-13.4L226,81l1.8,85.3h-17.4V35.9h19.2
			L245.8,112.5z"/>
		<path class="st0" d="M317.7,166.3c-14,0-21.1-7.4-21.1-22.1V58.3c0-14.9,7-22.4,20.9-22.4h16.7c13.9,0,20.9,7.5,20.9,22.4v85.9
			c0,14.8-7,22.1-21.1,22.1H317.7z M321.9,150.5h8.9c4.6,0,6.9-2.5,6.9-7.6V59.4c0-5.1-2.6-7.6-7.8-7.6h-8.2c-5.1,0-7.6,2.5-7.6,7.6
			v83.5C314.1,147.9,316.6,150.5,321.9,150.5L321.9,150.5z"/>
		<path class="st0" d="M406.6,98.9v-63h17.4v130.3h-17.4v-26L387.9,81v85.3h-17.4V35.9h17.4L406.6,98.9z"/>
		<path class="st0" d="M454.2,150.5h29.4v15.8h-48.3l-1.3-6.2l27.3-108.2h-24.5v-16h39.4l3.6,7.5L454.2,150.5z"/>
		<path class="st0" d="M513.7,166.3c-14,0-21.1-7.4-21.1-22.1V58.3c0-14.9,7-22.4,20.9-22.4h16.7c13.9,0,20.9,7.5,20.9,22.4v85.9
			c0,14.8-7,22.1-21.1,22.1H513.7z M517.9,150.5h8.9c4.6,0,6.9-2.5,6.9-7.6V59.4c0-5.1-2.6-7.6-7.8-7.6h-8.2c-5.1,0-7.6,2.5-7.6,7.6
			v83.5C510.1,147.9,512.7,150.5,517.9,150.5L517.9,150.5z"/>
		<path class="st0" d="M596.9,166.3h-17.4v-47.9l-21.4-82.4h17.2l13.1,56.6h0.4l11.8-56.6h17.2l-21.1,82.4L596.9,166.3z"/>
		<path class="st0" d="M624.3,166.3V35.9h43.2v15.8h-25.8v39.6h22.9v15.8h-22.9v43.3h25.8v15.8L624.3,166.3z"/>
		<path class="st0" d="M707.8,51.7v114.5h-17.4V51.7h-16.7V35.9h50.8v15.8H707.8z"/>
		<path class="st0" d="M791.1,35.9v105.7c0,16.5-7,24.7-21.1,24.7h-14.7c-13.9,0-20.9-8.3-20.9-24.9V35.9h17.4v106
			c0,5.7,2.5,8.5,7.6,8.5h7.1c4.7,0,7.1-2.8,7.1-8.5v-106H791.1z"/>
	</g>
</g>
</svg>
